<?xml version="1.0" encoding="UTF-8" standalone="no"?>
<svg width="36px" height="36px" viewBox="0 0 36 36" version="1.1" xmlns="http://www.w3.org/2000/svg" xmlns:xlink="http://www.w3.org/1999/xlink" xmlns:sketch="http://www.bohemiancoding.com/sketch/ns">
    <!-- Generator: Sketch 3.5.1 (25234) - http://www.bohemiancoding.com/sketch -->
    <title>1f389</title>
    <desc>Created with Sketch.</desc>
    <defs></defs>
    <g id="Marketing-Page" stroke="none" stroke-width="1" fill="none" fill-rule="evenodd" sketch:type="MSPage">
        <g id="landing-v2" sketch:type="MSArtboardGroup" transform="translate(-1050.000000, -3771.000000)">
            <g id="Sign-up" sketch:type="MSLayerGroup" transform="translate(0.000000, 3719.000000)">
                <g id="1f389" transform="translate(1050.000000, 52.000000)" sketch:type="MSShapeGroup">
                    <g id="Layer_1">
                        <g id="Group">
                            <g transform="translate(0.000000, 11.593220)" id="Shape">
                                <g transform="translate(0.000000, 1.220339)">
                                    <path d="M0,22.5762712 L5.1312,20.7518644 L1.251,18.9128136 L0,22.5762712 Z" fill="#F7B600"></path>
                                    <path d="M14.9658,7.56488136 L7.671,0.108 L6.4956,3.55179661 L14.9658,7.56488136 Z" fill="#FFDD7D"></path>
                                    <path d="M6.4956,3.55179661 L5.184,7.39220339 L21.2694,15.0132203 L21.9972,14.7551186 L14.9658,7.56488136 L6.4956,3.55179661 Z" fill="#F7B600"></path>
                                    <path d="M3.873,11.232 L15.8892,16.9261017 L21.2694,15.0132203 L5.184,7.39220339 L3.873,11.232 Z" fill="#FFDD7D"></path>
                                    <path d="M2.562,15.0730169 L10.5108,18.8389831 L15.8892,16.9261017 L3.873,11.232 L2.562,15.0730169 Z" fill="#F7B600"></path>
                                    <path d="M2.562,15.0730169 L1.251,18.9128136 L5.1312,20.7518644 L10.5108,18.8389831 L2.562,15.0730169 Z" fill="#FFDD7D"></path>
                                </g>
                                <path d="M17.9334,5.61477966 C21.981,9.66508475 24.0708,14.1412881 22.6008,15.6130169 C21.1302,17.0835254 16.6548,14.9930847 12.6072,10.9427797 C8.5596,6.89308475 6.471,2.41627119 7.9416,0.945152542 C9.4116,-0.526576271 13.8858,1.56386441 17.9334,5.61477966 L17.9334,5.61477966 Z" fill="#493816"></path>
                            </g>
                            <path d="M12.8976,7.00474576 C11.919,5.62332203 12.981,5.00644068 14.283,5.25355932 C13.0452,3.70494915 13.8084,2.63166102 15.7596,3.05267797 C16.3692,3.18447458 15.5208,4.23213559 14.9742,4.19308475 C16.6146,5.44271186 15.7146,6.76189831 13.9776,6.45132203 C15.5136,8.5960678 12.8742,8.06766102 11.7204,8.15735593 C11.4186,9.76271186 13.2216,11.5932203 12.6204,11.5932203 C11.277,11.5932203 9.138,6.52820339 12.8976,7.00474576 L12.8976,7.00474576 Z" id="Shape" fill="#42ADE2"></path>
                            <path d="M25.527,9.96650847 C24.6396,10.3728814 22.1028,6.33966102 25.212,6.30488136 C23.427,4.65437288 23.6568,3.85810169 26.052,3.80989831 C23.3076,1.01288136 27.6444,0 28.1016,1.4979661 C28.2378,1.94644068 26.7738,1.10257627 26.2968,1.90677966 C25.746,2.83484746 29.6742,5.17789831 25.6206,5.03938983 C27.111,6.58250847 27.2016,7.30250847 24.8238,7.56183051 C25.1346,7.99871186 26.0904,9.70840678 25.527,9.96650847 L25.527,9.96650847 Z" id="Shape" fill="#FF8736"></path>
                            <path d="M26.535,19.4863729 L27.447,18.6986441 C27.447,18.6986441 28.3086,19.9641356 28.914,20.444339 C29.379,18.2721356 29.2548,16.9517288 31.7454,18.4588475 C30.3378,14.6776271 32.6574,16.1060339 34.8498,17.1305085 C34.7232,16.171322 34.8696,16.2726102 35.8188,16.0010847 C36.6612,19.2154576 34.3974,18.2849492 32.5506,17.2287458 C33.6078,20.1288814 32.5014,19.9958644 30.1914,19.004339 C30.1518,20.2338305 29.7564,21.6274576 29.031,21.7464407 C28.206,21.8825085 26.535,19.4863729 26.535,19.4863729 L26.535,19.4863729 Z" id="Shape" fill="#ED4C5C"></path>
                            <path d="M19.8072,10.4052203 C18.6996,11.8714576 17.0112,12.6903051 15.7314,13.9728814 C14.4,15.3079322 13.6044,18.9811525 13.6044,18.9811525 C13.6044,18.9811525 14.0802,15.1505085 15.3528,13.676339 C16.5048,12.3431186 18.1524,11.3717288 19.044,9.82067797 C20.6388,7.04684746 19.215,3.33457627 17.1798,1.21484746 C17.6076,0.827389831 18.1746,0.337423729 18.5178,0.00122033898 C20.433,2.49986441 22.1358,7.32569492 19.8072,10.4052203 L19.8072,10.4052203 Z" id="Shape" fill="#C28FEF"></path>
                            <path d="M21.6516,13.5341695 C20.0646,14.6941017 18.9738,16.3775593 17.8686,17.9816949 C16.8924,19.3978983 13.8432,21.135661 13.8432,21.135661 C13.8432,21.135661 16.7412,19.1489492 17.6016,17.6583051 C18.6612,15.8223051 19.7448,13.9326102 21.4266,12.6061017 C24.789,9.95369492 29.6358,10.2514576 33.4386,11.6469153 C33.222,12.2070508 32.7744,13.3627119 32.7744,13.3627119 C32.7744,13.3627119 24.8556,11.1929492 21.6516,13.5341695 L21.6516,13.5341695 Z" id="Shape" fill="#FF8736"></path>
                            <path d="M28.3476,13.251661 C27.3384,14.6117288 26.8194,16.2543051 26.046,17.7486102 C25.3266,19.1416271 24.3762,20.4882712 22.9686,21.2271864 C21.4368,22.0326102 17.9718,21.7574237 17.9718,21.7574237 C17.9718,21.7574237 21.4182,21.7159322 22.8354,20.7457627 C24.2814,19.7542373 25.0398,18.0774915 25.6056,16.4611525 C26.6652,13.4377627 27.9936,10.1318644 31.1214,8.78644068 C31.3314,9.36305085 31.7508,10.5168814 31.7508,10.5168814 C31.7508,10.5168814 30.0294,10.9830508 28.3476,13.251661 L28.3476,13.251661 Z" id="Shape" fill="#42ADE2"></path>
                            <rect id="Rectangle-path" fill="#42ADE2" transform="translate(2.429619, 6.874118) rotate(-45.008103) translate(-2.429619, -6.874118) " x="1.22963074" y="5.65379107" width="2.39997701" height="2.44065458"></rect>
                            <rect id="Rectangle-path" fill="#FF8736" transform="translate(4.798279, 12.323634) rotate(-45.000000) translate(-4.798279, -12.323634) " x="3.59799008" y="11.1033065" width="2.40057698" height="2.44065456"></rect>
                            <rect id="Rectangle-path" fill="#ED4C5C" transform="translate(9.131733, 4.166033) rotate(-45.008103) translate(-9.131733, -4.166033) " x="7.93174462" y="2.94540081" width="2.39997701" height="2.44126475"></rect>
                            <rect id="Rectangle-path" fill="#C28FEF" transform="translate(27.606902, 24.807803) rotate(-45.000000) translate(-27.606902, -24.807803) " x="26.4069136" y="23.5871709" width="2.39997698" height="2.44126472"></rect>
                            <rect id="Rectangle-path" fill="#ED4C5C" transform="translate(23.822844, 30.726201) rotate(-45.000000) translate(-23.822844, -30.726201) " x="22.6228556" y="29.5058736" width="2.39997698" height="2.44065456"></rect>
                            <rect id="Rectangle-path" fill="#FF8736" transform="translate(31.267124, 32.091296) rotate(-45.000000) translate(-31.267124, -32.091296) " x="30.0671355" y="30.8706638" width="2.39997698" height="2.44126472"></rect>
                            <rect id="Rectangle-path" fill="#42ADE2" transform="translate(32.964669, 24.228390) rotate(-45.000000) translate(-32.964669, -24.228390) " x="31.7646805" y="23.0080624" width="2.39997698" height="2.44065456"></rect>
                            <rect id="Rectangle-path" fill="#42ADE2" transform="translate(30.131881, 5.997647) rotate(-45.000000) translate(-30.131881, -5.997647) " x="28.9318924" y="4.7770149" width="2.39997698" height="2.44126472"></rect>
                            <rect id="Rectangle-path" fill="#ED4C5C" transform="translate(11.926452, 16.369964) rotate(-45.000000) translate(-11.926452, -16.369964) " x="10.7264633" y="15.1496367" width="2.39997698" height="2.44065456"></rect>
                        </g>
                    </g>
                </g>
            </g>
        </g>
    </g>
</svg>