<svg xmlns="http://www.w3.org/2000/svg" xmlns:xlink="http://www.w3.org/1999/xlink" xmlns:sketch="http://www.bohemiancoding.com/sketch/ns" width="110px" height="26px" viewBox="0 0 110 26" version="1.1">
    <style>
	.style0{
		fill:	none;
		fill-rule:	evenodd;
	}
	.style1{
		fill:	#4E3D1E;
	}
</style><!-- Generator: Sketch 3.3.2 (12043) - http://www.bohemiancoding.com/sketch -->
    <title>logo</title>
    <desc>Created with Sketch.</desc>
    <defs/>
    <g id="Page-1" sketch:type="MSPage" class="style0">
        <g id="Blog-Post" sketch:type="MSArtboardGroup" transform="translate(-50.000000, -24.000000)" class="style1">
            <g id="Header-Copy" sketch:type="MSLayerGroup" transform="translate(50.000000, 11.000000)">
                <g id="logo" sketch:type="MSShapeGroup">
                    <path d="M23.2 19.5 C23.1 19.2 22.9 19 22.8 18.8 C20.9 16.2 17.9 14.1 13.8 13.9 C13.5 13.9 13.3 13.8 13 13.8 C12.7 13.8 12.5 13.9 12.2 13.9 C8.7 14.1 5.9 15.7 4 17.8 C2.9 19.1 2 20.6 1.5 22.2 C1.1 23.2 0.9 24.3 0.9 25.2 C1.5 27.9 5.4 34.2 13 34.2 C20.6 34.2 24.6 27.9 25.1 25.2 C25.1 23.4 24.5 21.3 23.2 19.5 L23.2 19.5 ZM25.1 27.3 C24.4 33.4 19.3 38.2 13 38.2 C6.7 38.2 1.6 33.4 0.9 27.3 C3 31.9 7.6 35 13 35 C18.4 35 23 31.9 25.1 27.3 L25.1 27.3 ZM13 39 C20.2 39 26 33.2 26 26 C26 18.8 20.2 13 13 13 C5.8 13 0 18.8 0 26 C0 33.2 5.8 39 13 39 ZM5.5 22.2 C5.5 22 5.6 21.8 5.8 21.7 C5.8 21.7 6.5 21.3 8.1 21.3 C9.6 21.3 10.5 21.7 10.5 21.7 C10.7 21.8 10.8 22 10.7 22.2 C10.6 22.4 10.4 22.5 10.2 22.5 C10.2 22.5 9.5 22.2 8.1 22.2 C6.6 22.2 6 22.5 6 22.5 C5.8 22.6 5.6 22.4 5.5 22.2 ZM15.4 22.2 C15.3 22 15.4 21.8 15.6 21.7 C15.6 21.7 16.4 21.3 17.9 21.3 C19.5 21.3 20.4 21.7 20.4 21.7 C20.6 21.8 20.7 22 20.6 22.2 C20.5 22.4 20.3 22.5 20.1 22.5 C20.1 22.5 19.4 22.2 17.9 22.2 C16.5 22.2 15.9 22.5 15.9 22.5 C15.7 22.6 15.5 22.4 15.4 22.2 Z" id="Mask-Copy-38"/>
                    <path d="M44.4 20.2 C44.4 20.4 44.3 20.6 44 20.6 L40.1 20.6 L40.1 33.5 C40.1 33.8 40 33.9 39.7 33.9 L38.8 33.9 C38.5 33.9 38.3 33.8 38.3 33.5 L38.3 20.6 L34.5 20.6 C34.2 20.6 34.1 20.4 34.1 20.2 L34.1 19.3 C34.1 19 34.2 18.9 34.5 18.9 L44 18.9 C44.3 18.9 44.4 19 44.4 19.3 L44.4 20.2 ZM54.2 27.7 C54.3 28 54.2 28.3 54.1 28.6 C53.9 28.8 53.7 29 53.2 29 L46.7 29 C46.7 29.6 46.8 30.2 46.9 30.7 C47 31.1 47.2 31.5 47.4 31.8 C47.7 32.1 48 32.3 48.4 32.4 C48.8 32.5 49.2 32.5 49.7 32.5 C50 32.5 50.2 32.5 50.5 32.5 C50.8 32.5 51.1 32.5 51.4 32.4 C51.7 32.4 52 32.4 52.2 32.4 C52.5 32.3 52.8 32.3 52.9 32.3 C53.1 32.2 53.2 32.3 53.3 32.3 C53.4 32.3 53.4 32.4 53.5 32.6 L53.6 33.1 C53.6 33.3 53.5 33.4 53.3 33.5 C53.1 33.6 52.8 33.7 52.5 33.8 C52.2 33.8 51.9 33.9 51.6 33.9 C51.2 34 50.9 34 50.6 34.1 C50.2 34.1 49.9 34.1 49.6 34.1 C48.6 34.1 47.7 34 47.1 33.6 C46.5 33.3 46 32.9 45.7 32.4 C45.4 31.8 45.2 31.2 45.1 30.5 C45 29.8 44.9 29.1 44.9 28.4 C44.9 27.9 45 27.3 45 26.6 C45.1 25.9 45.3 25.3 45.7 24.7 C46 24.1 46.5 23.7 47.1 23.3 C47.7 22.9 48.5 22.7 49.6 22.7 C50.6 22.7 51.4 22.8 52 23.1 C52.6 23.4 53 23.8 53.4 24.2 C53.7 24.7 53.9 25.2 54 25.8 C54.1 26.4 54.2 27.1 54.2 27.7 L54.2 27.7 ZM52.4 27.5 C52.4 27.1 52.3 26.7 52.3 26.4 C52.2 26 52.1 25.6 51.9 25.3 C51.7 25 51.4 24.7 51 24.5 C50.6 24.3 50.2 24.2 49.5 24.2 C49 24.2 48.6 24.3 48.3 24.5 C47.9 24.6 47.6 24.8 47.4 25.1 C47.2 25.4 47 25.8 46.9 26.2 C46.8 26.6 46.8 27 46.7 27.5 L52.4 27.5 ZM63.6 32.7 C63 33 62.4 33.3 61.7 33.6 C61 33.9 60.2 34.1 59.2 34.1 C58.1 34.1 57.3 33.8 56.8 33.3 C56.4 32.8 56.1 32 56.1 31 C56.1 29.7 56.5 28.7 57.1 28.1 C57.8 27.5 58.9 27.2 60.4 27.2 L63.6 27.2 L63.6 26.4 C63.6 25.6 63.4 25 63 24.7 C62.6 24.4 61.9 24.2 60.9 24.2 C60.7 24.2 60.4 24.2 60.2 24.2 C59.9 24.2 59.6 24.2 59.3 24.3 C59 24.3 58.7 24.3 58.5 24.3 C58.2 24.4 57.9 24.4 57.6 24.4 C57.4 24.5 57.2 24.4 57.2 24.2 L57.1 23.6 C57 23.5 57 23.4 57.1 23.4 C57.1 23.3 57.2 23.2 57.4 23.1 C57.6 23.1 57.9 23 58.2 22.9 C58.6 22.9 58.9 22.8 59.3 22.8 C59.6 22.7 60 22.7 60.3 22.7 C60.7 22.7 61 22.7 61.2 22.7 C62.2 22.7 62.9 22.8 63.4 23 C64 23.2 64.4 23.4 64.7 23.8 C65 24.1 65.2 24.6 65.2 25.1 C65.3 25.5 65.3 26.1 65.3 26.7 L65.3 31.7 C65.3 31.9 65.4 32.1 65.4 32.2 C65.4 32.3 65.4 32.4 65.5 32.5 C65.5 32.5 65.6 32.6 65.7 32.6 C65.8 32.6 66 32.7 66.2 32.7 C66.4 32.7 66.6 32.8 66.6 33 L66.6 33.5 C66.6 33.6 66.5 33.7 66.5 33.8 C66.4 33.9 66.3 33.9 66.1 33.9 C65.8 34 65.6 34 65.3 34 C64.8 34 64.4 33.9 64.1 33.7 C63.9 33.5 63.7 33.2 63.6 32.7 L63.6 32.7 ZM63.6 28.6 L60.2 28.6 C59.5 28.6 58.9 28.8 58.5 29.1 C58.1 29.4 57.9 30 57.9 30.9 C57.9 31.5 58 32 58.3 32.2 C58.5 32.4 59 32.5 59.7 32.5 C60 32.5 60.3 32.5 60.6 32.4 C61 32.3 61.3 32.2 61.7 32.1 C62 32 62.4 31.8 62.7 31.7 C63 31.5 63.3 31.4 63.6 31.2 L63.6 28.6 ZM84.3 33.5 C84.3 33.8 84.1 33.9 83.9 33.9 L82.9 33.9 C82.7 33.9 82.5 33.8 82.5 33.5 L82.5 26.7 C82.5 26.3 82.5 25.9 82.4 25.5 C82.4 25.2 82.3 25 82.2 24.8 C82 24.6 81.8 24.4 81.6 24.4 C81.4 24.3 81.1 24.2 80.7 24.2 C80.5 24.2 80.2 24.3 79.8 24.4 C79.5 24.5 79.2 24.6 78.8 24.7 C78.5 24.9 78.2 25 77.9 25.2 C77.5 25.3 77.3 25.4 77.1 25.5 C77.1 25.6 77.1 25.8 77.1 26 C77.1 26.2 77.1 26.5 77.1 26.8 L77.1 33.5 C77.1 33.8 77 33.9 76.7 33.9 L75.7 33.9 C75.5 33.9 75.4 33.8 75.4 33.5 L75.4 26.6 C75.4 25.8 75.3 25.3 75.1 24.8 C74.8 24.4 74.4 24.2 73.7 24.2 C73.4 24.2 73.1 24.3 72.8 24.4 C72.5 24.4 72.2 24.5 71.9 24.7 C71.5 24.8 71.2 24.9 70.9 25.1 C70.5 25.2 70.3 25.4 70 25.5 L70 33.5 C70 33.8 69.9 33.9 69.6 33.9 L68.6 33.9 C68.4 33.9 68.3 33.8 68.3 33.5 L68.3 23.3 C68.3 23 68.4 22.9 68.6 22.9 L69.6 22.9 C69.9 22.9 70 23 70 23.3 L70 24.1 L70 24.1 C70 24.1 70 24.1 70 24.1 C70.3 23.9 70.5 23.8 70.8 23.6 C71.1 23.5 71.4 23.3 71.7 23.2 C72 23 72.4 22.9 72.7 22.8 C73.1 22.7 73.5 22.7 73.8 22.7 C74.7 22.7 75.3 22.8 75.8 23.1 C76.3 23.4 76.6 23.8 76.8 24.3 C77.4 23.9 78 23.5 78.7 23.2 C79.4 22.8 80.2 22.7 81 22.7 C81.7 22.7 82.3 22.8 82.7 23 C83.1 23.2 83.5 23.4 83.7 23.8 C83.9 24.1 84.1 24.6 84.2 25.1 C84.2 25.6 84.3 26.1 84.3 26.7 L84.3 33.5 ZM96.3 28.3 C96.3 29.3 96.3 30.1 96.1 30.8 C96 31.5 95.7 32.1 95.3 32.6 C95 33.1 94.5 33.5 93.9 33.7 C93.3 34 92.5 34.1 91.6 34.1 C91.3 34.1 90.9 34.1 90.5 34.1 C90.1 34.1 89.7 34 89.3 34 C88.9 33.9 88.6 33.9 88.2 33.8 C87.9 33.7 87.6 33.7 87.3 33.6 C87.1 33.5 86.9 33.4 86.9 33.2 C86.8 33 86.8 32.8 86.8 32.7 L86.8 18.4 C86.8 18.2 86.8 18.1 86.9 18.1 C86.9 18 87 18 87.2 18 L88.1 18 C88.3 18 88.4 18 88.5 18.1 C88.5 18.1 88.6 18.3 88.6 18.4 L88.6 23.3 L88.6 23.4 C89.3 23.1 89.9 22.9 90.4 22.8 C91 22.7 91.4 22.7 91.9 22.7 C92.7 22.7 93.5 22.8 94.1 23.1 C94.7 23.3 95.1 23.7 95.4 24.2 C95.8 24.7 96 25.3 96.1 26 C96.3 26.7 96.3 27.5 96.3 28.3 L96.3 28.3 ZM94.5 28.5 C94.5 27.7 94.4 27.1 94.4 26.5 C94.3 26 94.1 25.5 93.9 25.2 C93.7 24.9 93.5 24.6 93.1 24.5 C92.8 24.3 92.4 24.2 92 24.2 C91.5 24.2 90.9 24.3 90.3 24.4 C89.8 24.4 89.2 24.6 88.6 24.7 L88.6 32.3 C89 32.3 89.5 32.4 90 32.4 C90.5 32.5 91 32.5 91.5 32.5 C92 32.5 92.4 32.4 92.8 32.4 C93.1 32.3 93.4 32.1 93.7 31.8 C93.9 31.5 94.1 31.1 94.3 30.6 C94.4 30.1 94.5 29.4 94.5 28.5 L94.5 28.5 ZM100.9 20 C100.9 20.2 100.9 20.5 100.7 20.7 C100.6 20.9 100.4 21 99.9 21 C99.5 21 99.2 20.9 99.1 20.7 C99 20.5 98.9 20.2 98.9 20 C98.9 19.7 99 19.4 99.1 19.3 C99.3 19.1 99.5 19 99.9 19 C100.3 19 100.6 19.1 100.7 19.3 C100.9 19.4 100.9 19.7 100.9 20 L100.9 20 ZM100.8 33.5 C100.8 33.8 100.7 33.9 100.4 33.9 L99.5 33.9 C99.2 33.9 99 33.8 99 33.5 L99 23.3 C99 23.1 99.1 23 99.1 23 C99.2 22.9 99.3 22.9 99.5 22.9 L100.4 22.9 C100.7 22.9 100.8 23 100.8 23.3 L100.8 33.5 ZM110 33.2 C110 33.4 109.9 33.6 109.8 33.6 C109.6 33.7 109.5 33.8 109.2 33.8 C109 33.9 108.8 33.9 108.5 34 C108.3 34 108 34 107.8 34.1 C107.6 34.1 107.3 34.1 107.2 34.1 C106.7 34.1 106.3 34 106 33.9 C105.6 33.8 105.4 33.6 105.2 33.4 C105 33.2 104.9 33 104.8 32.7 C104.7 32.4 104.7 32.1 104.7 31.7 L104.7 24.3 L103.4 24.3 C103.2 24.3 103 24.2 103 23.9 L103 23.3 C103 23 103.2 22.9 103.4 22.9 L104.7 22.9 L104.7 20.5 C104.7 20.3 104.7 20.2 104.8 20.2 C104.9 20.1 105 20.1 105.1 20 L106 19.8 C106.3 19.7 106.4 19.8 106.4 20.1 L106.4 22.9 L109 22.9 C109.1 22.9 109.3 22.9 109.3 23 C109.3 23.1 109.4 23.2 109.4 23.3 L109.4 23.9 C109.4 24.1 109.3 24.2 109.3 24.2 C109.3 24.3 109.1 24.3 109 24.3 L106.4 24.3 L106.4 31.2 C106.4 31.4 106.4 31.7 106.5 31.8 C106.5 32 106.6 32.1 106.7 32.2 C106.8 32.3 107 32.4 107.2 32.5 C107.4 32.5 107.7 32.5 108.1 32.5 C108.2 32.5 108.4 32.5 108.7 32.5 C109 32.5 109.2 32.4 109.4 32.4 C109.6 32.4 109.7 32.4 109.8 32.5 C109.8 32.5 109.9 32.6 109.9 32.7 L110 33.2 Z" id="Teambit-Copy-5"/>
                </g>
            </g>
        </g>
    </g>
</svg>