<?xml version="1.0" encoding="utf-8"?>
<!-- Generator: Adobe Illustrator 22.1.0, SVG Export Plug-In . SVG Version: 6.00 Build 0)  -->
<svg version="1.1" id="Layer_1" xmlns="http://www.w3.org/2000/svg" xmlns:xlink="http://www.w3.org/1999/xlink" x="0px" y="0px"
	 viewBox="0 0 270 270" style="enable-background:new 0 0 270 270;" xml:space="preserve">
<style type="text/css">
	.st0{fill:#ECB32D;}
	.st1{fill:#63C1A0;}
	.st2{fill:#E01A59;}
	.st3{fill:#331433;}
	.st4{fill:#D62027;}
	.st5{fill:#89D3DF;}
	.st6{fill:#258B74;}
	.st7{fill:#819C3C;}
</style>
<g>
	<g>
		<path class="st0" d="M175,17.8c-4.2-12.5-17.7-19.3-30.3-15.4C132,6.6,125.2,20,129.2,32.5l62.2,189.6
			c4.2,11.6,17.1,18.2,29.2,14.7c12.8-3.7,20.6-17.1,16.4-29.4C237,206.9,175,17.8,175,17.8z"/>
		<path class="st1" d="M78.6,48.8c-4.2-12.5-17.7-19.3-30.3-15.4c-12.6,4.2-19.5,17.6-15.5,30.1L95,253
			c4.2,11.6,17.1,18.2,29.2,14.7c12.8-3.7,20.6-17.1,16.4-29.4C140.7,237.9,78.6,48.8,78.6,48.8z"/>
		<path class="st2" d="M253.4,174.7c12.6-4.2,19.5-17.6,15.5-30.1c-4.2-12.5-17.7-19.3-30.3-15.4L47,191.1
			c-11.7,4.2-18.4,16.9-14.8,29c3.8,12.7,17.3,20.4,29.7,16.2C62.3,236.3,253.4,174.7,253.4,174.7z"/>
		<path class="st3" d="M86.8,228.4c12.4-3.9,28.6-9.2,45.9-14.7c-4-12.3-9.3-28.3-14.8-45.4L72,183L86.8,228.4z"/>
		<path class="st4" d="M183.4,197.3c17.3-5.5,33.4-10.8,45.9-14.7c-4-12.3-9.3-28.3-14.8-45.4l-45.9,14.7L183.4,197.3z"/>
		<path class="st5" d="M222,79.2c12.6-4.2,19.5-17.6,15.5-30.1c-4.2-12.5-17.7-19.3-30.3-15.4L15.7,95.5C4,99.7-2.6,112.4,0.9,124.4
			c3.8,12.7,17.3,20.4,29.7,16.2C31,140.7,222,79.2,222,79.2z"/>
		<path class="st6" d="M55.6,132.8c12.4-3.9,28.6-9.2,45.9-14.7C95.9,101,90.6,85,86.6,72.7L40.8,87.4L55.6,132.8z"/>
		<path class="st7" d="M152,101.8c17.3-5.5,33.4-10.8,45.9-14.7C192.3,70,187,54,183,41.7l-45.9,14.7L152,101.8z"/>
	</g>
</g>
</svg>
